<?xml version="1.0" encoding="UTF-8" standalone="no"?>
<!-- Generator: Adobe Illustrator 13.0.1, SVG Export Plug-In . SVG Version: 6.00 Build 14948)  -->

<svg
   xmlns:dc="http://purl.org/dc/elements/1.1/"
   xmlns:cc="http://creativecommons.org/ns#"
   xmlns:rdf="http://www.w3.org/1999/02/22-rdf-syntax-ns#"
   xmlns:svg="http://www.w3.org/2000/svg"
   xmlns="http://www.w3.org/2000/svg"
   xmlns:sodipodi="http://sodipodi.sourceforge.net/DTD/sodipodi-0.dtd"
   xmlns:inkscape="http://www.inkscape.org/namespaces/inkscape"
   version="1.1"
   x="0px"
   y="0px"
   width="156"
   height="156"
   viewBox="0 0 156.00001 155.99999"
   enable-background="new 0 0 676.845 165.731"
   xml:space="preserve"
   id="svg4607"
   sodipodi:docname="bsc.svg"
   inkscape:version="0.92.3 (2405546, 2018-03-11)"><metadata
   id="metadata4613"><rdf:RDF><cc:Work
       rdf:about=""><dc:format>image/svg+xml</dc:format><dc:type
         rdf:resource="http://purl.org/dc/dcmitype/StillImage" /><dc:title></dc:title></cc:Work></rdf:RDF></metadata><defs
   id="defs4611"><clipPath
     clipPathUnits="userSpaceOnUse"
     id="clipPath4621"><rect
       id="rect4623"
       width="190.25255"
       height="167.54752"
       x="0"
       y="-0.64211035"
       style="stroke-width:1.00470591" /></clipPath><clipPath
     clipPathUnits="userSpaceOnUse"
     id="clipPath4625"><rect
       id="rect4627"
       width="190.25255"
       height="167.54752"
       x="0"
       y="-0.64211035"
       style="stroke-width:1.00470591" /></clipPath><clipPath
     clipPathUnits="userSpaceOnUse"
     id="clipPath4629"><rect
       id="rect4631"
       width="190.25255"
       height="167.54752"
       x="0"
       y="-0.64211035"
       style="stroke-width:1.00470591" /></clipPath><clipPath
     clipPathUnits="userSpaceOnUse"
     id="clipPath4633"><rect
       id="rect4635"
       width="190.25255"
       height="167.54752"
       x="0"
       y="-0.64211035"
       style="stroke-width:1.00470591" /></clipPath><clipPath
     clipPathUnits="userSpaceOnUse"
     id="clipPath4637"><rect
       id="rect4639"
       width="190.25255"
       height="167.54752"
       x="0"
       y="-0.64211035"
       style="stroke-width:1.00470591" /></clipPath></defs><sodipodi:namedview
   pagecolor="#ffffff"
   bordercolor="#666666"
   borderopacity="1"
   objecttolerance="10"
   gridtolerance="10"
   guidetolerance="10"
   inkscape:pageopacity="0"
   inkscape:pageshadow="2"
   inkscape:window-width="1920"
   inkscape:window-height="1016"
   id="namedview4609"
   showgrid="false"
   fit-margin-top="0"
   fit-margin-left="0"
   fit-margin-right="0"
   fit-margin-bottom="0"
   inkscape:zoom="2.5544993"
   inkscape:cx="250.06417"
   inkscape:cy="122.15038"
   inkscape:window-x="0"
   inkscape:window-y="27"
   inkscape:window-maximized="1"
   inkscape:current-layer="svg4607" />
<symbol
   id="Bush_Left"
   viewBox="-43.3 -24.308 86.601 48.615"
   transform="translate(51.673532,-48.878328)">
	<g
   id="g4461">
		<g
   id="g4219">
			<path
   d="m -33.888,-3.511 c 8.299,8.895 13.237,21.557 13.237,21.557 -3.489,-10.506 -7.56,-15.73 -14.272,-24.22 z"
   id="path4191"
   inkscape:connector-curvature="0"
   style="fill:#009036" />
			<path
   d="m -30.487,3.161 c 0.297,2.265 2.376,11.441 2.376,11.441 l -2.153,-5.593 c -0.479,-2.881 0.761,-5.555 0.447,-7.952 z"
   id="path4193"
   inkscape:connector-curvature="0"
   style="fill:#009036" />
			<path
   d="m -27.667,8.564 c 0.297,2.266 1.726,9.829 1.726,9.829 l -0.53,-3.791 c 0,-2.44 -0.211,-5.744 -0.526,-8.142 z"
   id="path4195"
   inkscape:connector-curvature="0"
   style="fill:#009036" />
			<path
   d="m -24.188,13.377 c 0.216,1.381 3.051,6.613 3.051,6.613 l -2.181,-2.933 c 0,-1.487 -0.154,-3.501 -0.382,-4.963 z"
   id="path4197"
   inkscape:connector-curvature="0"
   style="fill:#009036" />
			<path
   d="m -21.167,18.075 c 0.602,1.176 2.76,6.232 2.76,6.232 l -1.281,-3.51 c -0.313,-1.289 -0.958,-3.02 -1.595,-4.265 z"
   id="path4199"
   inkscape:connector-curvature="0"
   style="fill:#009036" />
			<path
   d="m -26.043,10.332 c 0.297,2.266 1.726,9.828 1.726,9.828 l -1.161,-4.837 c 0,-2.441 0.42,-4.697 0.105,-7.095 z"
   id="path4201"
   inkscape:connector-curvature="0"
   style="fill:#009036" />
			<path
   d="m -24.522,3.487 c 1.421,0.866 6.495,3.396 6.495,3.396 l -3.35,-2.195 C -23.151,3.523 -26.7,4.061 -28.204,3.144 Z"
   id="path4203"
   inkscape:connector-curvature="0"
   style="fill:#009036" />
			<path
   d="m -21.855,6.884 c 1.898,1.261 6.128,5.077 6.128,5.077 l -3.163,-2.14 c -2.187,-1.069 -5.052,-2.709 -7.062,-4.043 z"
   id="path4205"
   inkscape:connector-curvature="0"
   style="fill:#009036" />
			<path
   d="m -21.837,13.088 c 1.036,0.934 3.865,6.169 3.865,6.169 l -1.263,-3.432 c -1.244,-0.811 -2.842,-2.037 -3.939,-3.025 z"
   id="path4207"
   inkscape:connector-curvature="0"
   style="fill:#009036" />
			<path
   d="m -23.271,9.473 c 1.577,1.009 5.962,5.851 5.962,5.851 l -2.632,-3.877 c -1.816,-0.857 -3.47,-1.16 -5.14,-2.229 z"
   id="path4209"
   inkscape:connector-curvature="0"
   style="fill:#009036" />
			<path
   d="m -32.966,0.366 c 0.297,2.265 1.6,12.736 1.6,12.736 l -1.376,-6.888 c -0.479,-2.881 0.762,-5.555 0.447,-7.952 z"
   id="path4211"
   inkscape:connector-curvature="0"
   style="fill:#009036" />
			<path
   d="m -34.966,-1.264 c 0.297,2.266 1.599,12.736 1.599,12.736 l -1.376,-6.887 c -0.479,-2.882 0.761,-5.556 0.447,-7.953 z"
   id="path4213"
   inkscape:connector-curvature="0"
   style="fill:#009036" />
			<path
   d="m -29.402,-0.557 c 1.549,0.605 10.179,4.284 10.179,4.284 l -4.82,-3.121 c -1.949,-0.838 -5.362,-0.453 -7.002,-1.095 z"
   id="path4215"
   inkscape:connector-curvature="0"
   style="fill:#009036" />
			<path
   d="m -29.97,-3.318 c 1.727,0.743 9.727,4.106 9.727,4.106 l -5.13,-2.746 c -2.171,-1.049 -4.612,-0.291 -6.44,-1.078 z"
   id="path4217"
   inkscape:connector-curvature="0"
   style="fill:#009036" />
		</g>
		<g
   id="g4249">
			<path
   d="m -41.108,-9.821 c 17.332,-2.827 35.766,-10.603 35.766,-10.603 -13.469,6.661 -22.757,8.744 -37.958,12.079 z"
   id="path4221"
   inkscape:connector-curvature="0"
   style="fill:#009036" />
			<path
   d="m -29.852,-13.562 c 2.399,-1.676 13.091,-8.003 13.091,-8.003 l -7.499,3.39 c -3.164,2.079 -4.231,4.895 -6.771,6.668 z"
   id="path4223"
   inkscape:connector-curvature="0"
   style="fill:#009036" />
			<path
   d="m -21.787,-16.448 c 2.399,-1.676 10.895,-7.041 10.895,-7.041 l -4.051,2.787 c -2.23,1.975 -5.483,4.535 -8.022,6.309 z"
   id="path4225"
   inkscape:connector-curvature="0"
   style="fill:#009036" />
			<path
   d="m -13.531,-18.509 c 1.501,-1.004 9.426,-3.744 9.426,-3.744 l -5.098,1.225 c -1.36,1.204 -3.371,2.751 -4.96,3.813 z"
   id="path4227"
   inkscape:connector-curvature="0"
   style="fill:#009036" />
			<path
   d="m -5.888,-20.719 c 1.742,-0.635 8.756,-3.589 8.756,-3.589 l -4.628,2.165 c -1.525,0.878 -3.821,1.938 -5.666,2.609 z"
   id="path4229"
   inkscape:connector-curvature="0"
   style="fill:#009036" />
			<path
   d="m -18.371,-17.022 c 2.399,-1.676 10.895,-7.041 10.895,-7.041 l -5.708,3.301 c -2.23,1.975 -3.826,4.021 -6.366,5.795 z"
   id="path4231"
   inkscape:connector-curvature="0"
   style="fill:#009036" />
			<path
   d="m -22.937,-10.686 c 2.367,0.047 10.307,0.671 10.307,0.671 l -5.722,0.014 c -3.032,0.008 -6.476,-2.295 -8.982,-2.345 z"
   id="path4233"
   inkscape:connector-curvature="0"
   style="fill:#009036" />
			<path
   d="m -16.876,-12.029 c 3.258,-0.021 11.436,-0.882 11.436,-0.882 l -5.462,0.066 c -3.403,-0.285 -8.078,-0.468 -11.526,-0.445 z"
   id="path4235"
   inkscape:connector-curvature="0"
   style="fill:#009036" />
			<path
   d="m -11.188,-17.037 c 2.003,-0.21 9.925,-2.956 9.925,-2.956 l -4.537,2.111 c -2.12,0.001 -5.014,0.151 -7.134,0.374 z"
   id="path4237"
   inkscape:connector-curvature="0"
   style="fill:#009036" />
			<path
   d="m -16.082,-14.868 c 2.671,0.014 11.958,-1.595 11.958,-1.595 l -6.461,1.751 c -2.797,-0.263 -4.908,-0.889 -7.736,-0.902 z"
   id="path4239"
   inkscape:connector-curvature="0"
   style="fill:#009036" />
			<path
   d="m -35.155,-12.604 c 2.399,-1.677 13.411,-9.46 13.411,-9.46 l -7.819,4.846 c -3.163,2.079 -4.231,4.895 -6.771,6.668 z"
   id="path4241"
   inkscape:connector-curvature="0"
   style="fill:#009036" />
			<path
   d="m -38.862,-12.34 c 2.399,-1.676 13.412,-9.46 13.412,-9.46 l -7.819,4.847 c -3.164,2.079 -4.231,4.894 -6.771,6.668 z"
   id="path4243"
   inkscape:connector-curvature="0"
   style="fill:#009036" />
			<path
   d="m -32.045,-9.983 c 2.271,0.326 15.205,1.893 15.205,1.893 l -8.198,-0.013 c -2.927,-0.348 -6.361,-2.455 -8.766,-2.8 z"
   id="path4245"
   inkscape:connector-curvature="0"
   style="fill:#009036" />
			<path
   d="m -35.199,-8.048 c 2.595,0.308 14.541,1.798 14.541,1.798 l -8.2,-0.479 c -3.366,-0.294 -5.381,-2.191 -8.127,-2.518 z"
   id="path4247"
   inkscape:connector-curvature="0"
   style="fill:#009036" />
		</g>
		<g
   id="g4279">
			<path
   d="m -20.024,-4.793 c 13.512,-1.991 27.731,-7.055 27.731,-7.055 -10.5,4.69 -17.742,6.158 -29.593,8.506 z"
   id="path4251"
   inkscape:connector-curvature="0"
   style="fill:#009036" />
			<path
   d="m -11.401,-7.015 c 1.871,-1.181 10.206,-5.637 10.206,-5.637 l -5.846,2.388 c -2.467,1.464 -3.3,3.447 -5.279,4.696 z"
   id="path4253"
   inkscape:connector-curvature="0"
   style="fill:#009036" />
			<path
   d="m -5.113,-9.048 c 1.87,-1.18 8.494,-4.958 8.494,-4.958 l -3.158,1.963 c -1.739,1.39 -4.275,3.192 -6.255,4.442 z"
   id="path4255"
   inkscape:connector-curvature="0"
   style="fill:#009036" />
			<path
   d="m 1.323,-10.499 c 1.17,-0.707 7.349,-2.637 7.349,-2.637 l -3.975,0.862 c -1.06,0.848 -2.627,1.938 -3.867,2.686 z"
   id="path4257"
   inkscape:connector-curvature="0"
   style="fill:#009036" />
			<path
   d="m 7.281,-12.056 c 1.358,-0.447 6.827,-2.527 6.827,-2.527 l -3.608,1.524 c -1.189,0.618 -2.979,1.365 -4.417,1.838 z"
   id="path4259"
   inkscape:connector-curvature="0"
   style="fill:#009036" />
			<path
   d="m -2.451,-9.452 c 1.871,-1.181 8.494,-4.959 8.494,-4.959 l -4.45,2.325 c -1.739,1.391 -2.982,2.831 -4.962,4.08 z"
   id="path4261"
   inkscape:connector-curvature="0"
   style="fill:#009036" />
			<path
   d="m -6.011,-4.99 c 1.846,0.033 8.036,0.473 8.036,0.473 l -4.46,0.01 c -2.364,0.006 -5.049,-1.616 -7.002,-1.651 z"
   id="path4263"
   inkscape:connector-curvature="0"
   style="fill:#009036" />
			<path
   d="m -1.285,-5.937 c 2.54,-0.015 8.916,-0.62 8.916,-0.62 l -4.259,0.046 c -2.653,-0.2 -6.298,-0.329 -8.986,-0.313 z"
   id="path4265"
   inkscape:connector-curvature="0"
   style="fill:#009036" />
			<path
   d="m 3.15,-9.463 c 1.562,-0.148 7.737,-2.082 7.737,-2.082 l -3.537,1.487 c -1.653,10e-4 -3.909,0.106 -5.562,0.263 z"
   id="path4267"
   inkscape:connector-curvature="0"
   style="fill:#009036" />
			<path
   d="m -0.666,-7.936 c 2.083,0.01 9.323,-1.123 9.323,-1.123 L 3.62,-7.825 C 1.439,-8.011 -0.207,-8.451 -2.411,-8.461 Z"
   id="path4269"
   inkscape:connector-curvature="0"
   style="fill:#009036" />
			<path
   d="m -15.536,-6.342 c 1.871,-1.18 10.456,-6.661 10.456,-6.661 l -6.096,3.412 c -2.466,1.464 -3.299,3.446 -5.278,4.696 z"
   id="path4271"
   inkscape:connector-curvature="0"
   style="fill:#009036" />
			<path
   d="m -18.426,-6.154 c 1.87,-1.181 10.456,-6.662 10.456,-6.662 l -6.096,3.413 c -2.466,1.464 -3.299,3.446 -5.279,4.695 z"
   id="path4273"
   inkscape:connector-curvature="0"
   style="fill:#009036" />
			<path
   d="m -13.112,-4.495 c 1.771,0.229 11.854,1.332 11.854,1.332 L -7.65,-3.172 c -2.282,-0.245 -4.959,-1.729 -6.834,-1.972 z"
   id="path4275"
   inkscape:connector-curvature="0"
   style="fill:#009036" />
			<path
   d="m -15.57,-3.133 c 2.022,0.217 11.336,1.267 11.336,1.267 l -6.393,-0.338 c -2.625,-0.207 -4.195,-1.543 -6.336,-1.772 z"
   id="path4277"
   inkscape:connector-curvature="0"
   style="fill:#009036" />
		</g>
		<g
   id="g4309">
			<path
   d="m 1.652,-2.056 c 12.235,-1.712 25.111,-6.067 25.111,-6.067 -9.508,4.034 -16.065,5.297 -26.796,7.316 z"
   id="path4281"
   inkscape:connector-curvature="0"
   style="fill:#009036" />
			<path
   d="m 9.46,-3.967 c 1.694,-1.015 9.241,-4.848 9.241,-4.848 l -5.293,2.054 c -2.233,1.259 -2.987,2.964 -4.78,4.039 z"
   id="path4283"
   inkscape:connector-curvature="0"
   style="fill:#009036" />
			<path
   d="m 15.154,-5.715 c 1.694,-1.016 7.691,-4.266 7.691,-4.266 l -2.859,1.688 c -1.575,1.196 -3.871,2.747 -5.664,3.821 z"
   id="path4285"
   inkscape:connector-curvature="0"
   style="fill:#009036" />
			<path
   d="m 20.982,-6.964 c 1.06,-0.607 6.654,-2.268 6.654,-2.268 l -3.598,0.742 c -0.96,0.729 -2.379,1.667 -3.501,2.311 z"
   id="path4287"
   inkscape:connector-curvature="0"
   style="fill:#009036" />
			<path
   d="m 26.378,-8.303 c 1.23,-0.385 6.182,-2.174 6.182,-2.174 l -3.268,1.312 c -1.076,0.532 -2.697,1.174 -4,1.581 z"
   id="path4289"
   inkscape:connector-curvature="0"
   style="fill:#009036" />
			<path
   d="m 17.565,-6.063 c 1.694,-1.015 7.691,-4.266 7.691,-4.266 l -4.029,2 c -1.575,1.196 -2.701,2.436 -4.494,3.511 z"
   id="path4291"
   inkscape:connector-curvature="0"
   style="fill:#009036" />
			<path
   d="m 14.342,-2.225 c 1.671,0.028 7.276,0.406 7.276,0.406 l -4.039,0.009 c -2.141,0.005 -4.572,-1.39 -6.341,-1.42 z"
   id="path4293"
   inkscape:connector-curvature="0"
   style="fill:#009036" />
			<path
   d="m 18.621,-3.038 c 2.3,-0.013 8.073,-0.534 8.073,-0.534 l -3.856,0.04 c -2.402,-0.173 -5.703,-0.283 -8.137,-0.271 z"
   id="path4295"
   inkscape:connector-curvature="0"
   style="fill:#009036" />
			<path
   d="m 22.637,-6.072 c 1.414,-0.127 7.006,-1.791 7.006,-1.791 l -3.204,1.279 c -1.496,10e-4 -3.539,0.092 -5.036,0.227 z"
   id="path4297"
   inkscape:connector-curvature="0"
   style="fill:#009036" />
			<path
   d="m 19.182,-4.758 c 1.886,0.008 8.442,-0.966 8.442,-0.966 l -4.562,1.061 C 21.087,-4.822 19.597,-5.202 17.601,-5.21 Z"
   id="path4299"
   inkscape:connector-curvature="0"
   style="fill:#009036" />
			<path
   d="m 5.717,-3.387 c 1.694,-1.016 9.468,-5.731 9.468,-5.731 l -5.52,2.937 c -2.233,1.259 -2.987,2.964 -4.78,4.039 z"
   id="path4301"
   inkscape:connector-curvature="0"
   style="fill:#009036" />
			<path
   d="m 3.1,-3.227 c 1.694,-1.015 9.468,-5.73 9.468,-5.73 l -5.52,2.936 c -2.233,1.26 -2.987,2.965 -4.78,4.04 z"
   id="path4303"
   inkscape:connector-curvature="0"
   style="fill:#009036" />
			<path
   d="m 7.912,-1.799 c 1.604,0.197 10.733,1.146 10.733,1.146 L 12.858,-0.66 C 10.792,-0.871 8.368,-2.147 6.67,-2.356 Z"
   id="path4305"
   inkscape:connector-curvature="0"
   style="fill:#009036" />
			<path
   d="M 5.686,-0.627 C 7.518,-0.44 15.951,0.462 15.951,0.462 L 10.162,0.172 C 7.786,-0.006 6.364,-1.155 4.425,-1.353 Z"
   id="path4307"
   inkscape:connector-curvature="0"
   style="fill:#009036" />
		</g>
		<g
   id="g4339">
			<path
   d="M 14.001,2.836 C 25.08,1.363 36.739,-2.384 36.739,-2.384 28.13,1.087 22.192,2.173 12.475,3.91 Z"
   id="path4311"
   inkscape:connector-curvature="0"
   style="fill:#009036" />
			<path
   d="m 21.072,1.192 c 1.534,-0.873 8.368,-4.171 8.368,-4.171 l -4.793,1.767 c -2.022,1.083 -2.705,2.551 -4.328,3.475 z"
   id="path4313"
   inkscape:connector-curvature="0"
   style="fill:#009036" />
			<path
   d="m 26.228,-0.312 c 1.534,-0.874 6.964,-3.67 6.964,-3.67 l -2.589,1.453 c -1.426,1.028 -3.505,2.362 -5.128,3.287 z"
   id="path4315"
   inkscape:connector-curvature="0"
   style="fill:#009036" />
			<path
   d="m 31.505,-1.386 c 0.96,-0.523 6.026,-1.951 6.026,-1.951 l -3.259,0.638 c -0.869,0.628 -2.154,1.434 -3.17,1.987 z"
   id="path4317"
   inkscape:connector-curvature="0"
   style="fill:#009036" />
			<path
   d="m 36.391,-2.538 c 1.114,-0.331 5.598,-1.87 5.598,-1.87 l -2.959,1.129 c -0.975,0.457 -2.442,1.009 -3.622,1.359 z"
   id="path4319"
   inkscape:connector-curvature="0"
   style="fill:#009036" />
			<path
   d="m 28.411,-0.611 c 1.534,-0.873 6.964,-3.669 6.964,-3.669 l -3.649,1.72 C 30.3,-1.531 29.28,-0.465 27.657,0.46 Z"
   id="path4321"
   inkscape:connector-curvature="0"
   style="fill:#009036" />
			<path
   d="m 25.492,2.69 c 1.513,0.024 6.589,0.35 6.589,0.35 L 28.423,3.047 C 26.485,3.052 24.283,1.852 22.681,1.825 Z"
   id="path4323"
   inkscape:connector-curvature="0"
   style="fill:#009036" />
			<path
   d="m 29.367,1.99 c 2.083,-0.011 7.31,-0.459 7.31,-0.459 L 33.185,1.565 C 31.01,1.417 28.021,1.322 25.817,1.333 Z"
   id="path4325"
   inkscape:connector-curvature="0"
   style="fill:#009036" />
			<path
   d="m 33.003,-0.619 c 1.28,-0.109 6.344,-1.54 6.344,-1.54 l -2.9,1.1 c -1.355,10e-4 -3.205,0.079 -4.56,0.195 z"
   id="path4327"
   inkscape:connector-curvature="0"
   style="fill:#009036" />
			<path
   d="m 29.875,0.511 c 1.708,0.008 7.645,-0.83 7.645,-0.83 L 33.39,0.593 C 31.602,0.456 30.252,0.13 28.445,0.122 Z"
   id="path4329"
   inkscape:connector-curvature="0"
   style="fill:#009036" />
			<path
   d="m 17.682,1.69 c 1.534,-0.873 8.573,-4.93 8.573,-4.93 l -4.998,2.525 C 19.235,0.369 18.552,1.836 16.929,2.76 Z"
   id="path4331"
   inkscape:connector-curvature="0"
   style="fill:#009036" />
			<path
   d="m 15.312,1.829 c 1.533,-0.873 8.573,-4.93 8.573,-4.93 l -4.999,2.525 c -2.022,1.083 -2.705,2.55 -4.328,3.475 z"
   id="path4333"
   inkscape:connector-curvature="0"
   style="fill:#009036" />
			<path
   d="m 19.669,3.057 c 1.452,0.17 9.72,0.986 9.72,0.986 L 24.148,4.036 C 22.277,3.855 20.082,2.757 18.544,2.577 Z"
   id="path4335"
   inkscape:connector-curvature="0"
   style="fill:#009036" />
			<path
   d="m 17.654,4.065 c 1.658,0.16 9.295,0.937 9.295,0.937 L 21.707,4.753 C 19.556,4.6 18.268,3.61 16.512,3.44 Z"
   id="path4337"
   inkscape:connector-curvature="0"
   style="fill:#009036" />
		</g>
		<g
   id="g4369">
			<path
   d="M -16.823,0.146 C -9.209,6.411 -2.933,16.13 -2.933,16.13 -7.012,7.951 -10.858,4.172 -17.184,-1.957 Z"
   id="path4341"
   inkscape:connector-curvature="0"
   style="fill:#009036" />
			<path
   d="m -12.52,5.146 c 0.525,1.819 3.334,9.083 3.334,9.083 L -11.588,9.912 C -12.335,7.609 -11.716,5.266 -12.272,3.34 Z"
   id="path4343"
   inkscape:connector-curvature="0"
   style="fill:#009036" />
			<path
   d="m -9.624,9.226 c 0.525,1.82 2.619,7.842 2.619,7.842 L -7.909,14.027 C -8.226,12.026 -8.819,9.346 -9.375,7.42 Z"
   id="path4345"
   inkscape:connector-curvature="0"
   style="fill:#009036" />
			<path
   d="m -6.292,12.74 c 0.347,1.105 3.232,5.044 3.232,5.044 l -2.078,-2.135 c -0.193,-1.22 -0.574,-2.851 -0.942,-4.021 z"
   id="path4347"
   inkscape:connector-curvature="0"
   style="fill:#009036" />
			<path
   d="m -3.331,16.218 c 0.621,0.89 2.957,4.768 2.957,4.768 l -1.453,-2.719 c -0.411,-1.018 -1.138,-2.355 -1.795,-3.298 z"
   id="path4349"
   inkscape:connector-curvature="0"
   style="fill:#009036" />
			<path
   d="m -8.131,10.474 c 0.525,1.819 2.619,7.841 2.619,7.841 l -1.532,-3.82 c -0.317,-2 -0.283,-3.9 -0.839,-5.827 z"
   id="path4351"
   inkscape:connector-curvature="0"
   style="fill:#009036" />
			<path
   d="m -7.835,4.678 c 1.218,0.534 5.496,1.982 5.496,1.982 L -5.231,5.273 C -6.763,4.538 -9.455,5.416 -10.745,4.85 Z"
   id="path4353"
   inkscape:connector-curvature="0"
   style="fill:#009036" />
			<path
   d="m -5.318,7.132 c 1.641,0.8 5.428,3.405 5.428,3.405 L -2.629,9.174 C -4.47,8.566 -6.913,7.576 -8.65,6.73 Z"
   id="path4355"
   inkscape:connector-curvature="0"
   style="fill:#009036" />
			<path
   d="m -4.499,12.213 c 0.928,0.638 3.809,4.58 3.809,4.58 l -1.429,-2.657 c -1.073,-0.511 -2.477,-1.318 -3.458,-1.994 z"
   id="path4357"
   inkscape:connector-curvature="0"
   style="fill:#009036" />
			<path
   d="m -6.085,9.428 c 1.358,0.633 5.4,4.06 5.4,4.06 L -3.236,10.635 C -4.76,10.156 -6.088,10.113 -7.526,9.443 Z"
   id="path4359"
   inkscape:connector-curvature="0"
   style="fill:#009036" />
			<path
   d="m -14.812,3.16 c 0.525,1.82 2.898,10.24 2.898,10.24 l -1.965,-5.475 c -0.746,-2.302 -0.128,-4.646 -0.684,-6.572 z"
   id="path4361"
   inkscape:connector-curvature="0"
   style="fill:#009036" />
			<path
   d="m -16.581,2.071 c 0.525,1.82 2.898,10.24 2.898,10.24 L -15.648,6.836 C -16.395,4.534 -15.776,2.19 -16.333,0.264 Z"
   id="path4363"
   inkscape:connector-curvature="0"
   style="fill:#009036" />
			<path
   d="m -12.158,1.965 c 1.284,0.306 8.479,2.256 8.479,2.256 L -7.836,2.257 c -1.625,-0.445 -4.232,0.29 -5.592,-0.033 z"
   id="path4365"
   inkscape:connector-curvature="0"
   style="fill:#009036" />
			<path
   d="m -12.959,-0.229 c 1.441,0.396 8.104,2.166 8.104,2.166 L -9.205,0.32 c -1.826,-0.593 -3.627,0.329 -5.152,-0.09 z"
   id="path4367"
   inkscape:connector-curvature="0"
   style="fill:#009036" />
		</g>
		<g
   id="g4399">
			<path
   d="M -1.735,1.377 C 3.281,6.61 7.115,14.385 7.115,14.385 4.747,7.917 2.253,4.807 -1.853,-0.243 Z"
   id="path4371"
   inkscape:connector-curvature="0"
   style="fill:#009036" />
			<path
   d="m 1.003,5.443 c 0.254,1.415 1.776,7.109 1.776,7.109 L 1.352,9.122 C 0.972,7.327 1.569,5.584 1.3,4.086 Z"
   id="path4373"
   inkscape:connector-curvature="0"
   style="fill:#009036" />
			<path
   d="m 2.798,8.724 c 0.254,1.415 1.348,6.121 1.348,6.121 L 3.703,12.478 C 3.61,10.938 3.365,8.864 3.096,7.366 Z"
   id="path4375"
   inkscape:connector-curvature="0"
   style="fill:#009036" />
			<path
   d="m 4.943,11.601 c 0.174,0.861 1.972,4.033 1.972,4.033 L 5.574,13.883 C 5.517,12.945 5.354,11.682 5.169,10.77 Z"
   id="path4377"
   inkscape:connector-curvature="0"
   style="fill:#009036" />
			<path
   d="m 6.825,14.427 c 0.384,0.715 1.793,3.807 1.793,3.807 L 7.762,16.078 C 7.536,15.279 7.107,14.218 6.7,13.461 Z"
   id="path4379"
   inkscape:connector-curvature="0"
   style="fill:#009036" />
			<path
   d="m 3.781,9.765 c 0.254,1.415 1.348,6.121 1.348,6.121 L 4.29,12.887 C 4.197,11.348 4.347,9.906 4.078,8.408 Z"
   id="path4381"
   inkscape:connector-curvature="0"
   style="fill:#009036" />
			<path
   d="m 4.377,5.378 c 0.834,0.481 3.79,1.847 3.79,1.847 L 6.195,5.992 C 5.151,5.339 3.172,5.839 2.289,5.329 Z"
   id="path4383"
   inkscape:connector-curvature="0"
   style="fill:#009036" />
			<path
   d="m 6.01,7.399 c 1.118,0.709 3.647,2.924 3.647,2.924 L 7.793,9.117 C 6.52,8.542 4.843,7.639 3.659,6.888 Z"
   id="path4385"
   inkscape:connector-curvature="0"
   style="fill:#009036" />
			<path
   d="m 6.257,11.312 c 0.62,0.542 2.414,3.716 2.414,3.716 L 7.828,12.92 C 7.097,12.465 6.149,11.765 5.493,11.191 Z"
   id="path4387"
   inkscape:connector-curvature="0"
   style="fill:#009036" />
			<path
   d="m 5.311,9.097 c 0.927,0.564 3.583,3.419 3.583,3.419 L 7.263,10.19 C 6.207,9.733 5.263,9.617 4.282,9.018 Z"
   id="path4389"
   inkscape:connector-curvature="0"
   style="fill:#009036" />
			<path
   d="m -0.5,3.793 c 0.254,1.416 1.388,7.961 1.388,7.961 L -0.151,7.473 C -0.531,5.677 0.066,3.934 -0.203,2.436 Z"
   id="path4391"
   inkscape:connector-curvature="0"
   style="fill:#009036" />
			<path
   d="m -1.69,2.856 c 0.254,1.415 1.388,7.961 1.388,7.961 L -1.341,6.536 C -1.721,4.74 -1.124,2.997 -1.393,1.499 Z"
   id="path4393"
   inkscape:connector-curvature="0"
   style="fill:#009036" />
			<path
   d="m 1.472,3.049 c 0.896,0.312 5.9,2.239 5.9,2.239 L 4.537,3.539 C 3.407,3.099 1.498,3.497 0.549,3.167 Z"
   id="path4395"
   inkscape:connector-curvature="0"
   style="fill:#009036" />
			<path
   d="M 1.047,1.333 C 2.048,1.724 6.685,3.48 6.685,3.48 L 3.689,1.981 C 2.425,1.419 1.079,2.007 0.019,1.594 Z"
   id="path4397"
   inkscape:connector-curvature="0"
   style="fill:#009036" />
		</g>
		<g
   id="g4429">
			<path
   d="M 10.392,4.123 C 15.719,8.621 19.531,15.07 19.531,15.07 17.291,9.758 14.678,7.116 10.369,2.823 Z"
   id="path4401"
   inkscape:connector-curvature="0"
   style="fill:#009036" />
			<path
   d="m 13.217,7.543 c 0.191,1.146 1.526,5.786 1.526,5.786 L 13.361,10.501 C 13.054,9.044 13.85,7.692 13.648,6.48 Z"
   id="path4403"
   inkscape:connector-curvature="0"
   style="fill:#009036" />
			<path
   d="m 15.027,10.275 c 0.19,1.146 1.108,4.971 1.108,4.971 l -0.34,-1.917 c 0,-1.234 -0.136,-2.904 -0.338,-4.117 z"
   id="path4405"
   inkscape:connector-curvature="0"
   style="fill:#009036" />
			<path
   d="m 17.261,12.709 c 0.139,0.698 1.958,3.345 1.958,3.345 L 17.82,14.571 c 0,-0.752 -0.099,-1.771 -0.246,-2.51 z"
   id="path4407"
   inkscape:connector-curvature="0"
   style="fill:#009036" />
			<path
   d="m 19.2,15.085 c 0.386,0.595 1.772,3.151 1.772,3.151 L 20.15,16.462 C 19.949,15.81 19.535,14.936 19.126,14.306 Z"
   id="path4409"
   inkscape:connector-curvature="0"
   style="fill:#009036" />
			<path
   d="m 16.07,11.17 c 0.19,1.145 1.108,4.97 1.108,4.97 l -0.746,-2.446 c 0,-1.234 0.27,-2.375 0.068,-3.588 z"
   id="path4411"
   inkscape:connector-curvature="0"
   style="fill:#009036" />
			<path
   d="m 17.046,7.708 c 0.912,0.438 4.169,1.718 4.169,1.718 l -2.15,-1.11 C 17.926,7.727 15.648,8 14.683,7.536 Z"
   id="path4413"
   inkscape:connector-curvature="0"
   style="fill:#009036" />
			<path
   d="m 18.758,9.426 c 1.219,0.638 3.934,2.567 3.934,2.567 l -2.03,-1.082 C 19.258,10.37 17.419,9.542 16.129,8.866 Z"
   id="path4415"
   inkscape:connector-curvature="0"
   style="fill:#009036" />
			<path
   d="m 18.77,12.562 c 0.666,0.473 2.481,3.12 2.481,3.12 L 20.44,13.947 c -0.798,-0.41 -1.825,-1.03 -2.529,-1.53 z"
   id="path4417"
   inkscape:connector-curvature="0"
   style="fill:#009036" />
			<path
   d="m 17.849,10.734 c 1.012,0.511 3.828,2.959 3.828,2.959 L 19.988,11.732 C 18.822,11.299 17.76,11.146 16.689,10.606 Z"
   id="path4419"
   inkscape:connector-curvature="0"
   style="fill:#009036" />
			<path
   d="m 11.626,6.13 c 0.19,1.146 1.026,6.44 1.026,6.44 L 11.769,9.088 c -0.307,-1.457 0.489,-2.81 0.287,-4.021 z"
   id="path4421"
   inkscape:connector-curvature="0"
   style="fill:#009036" />
			<path
   d="m 10.342,5.306 c 0.19,1.146 1.027,6.44 1.027,6.44 L 10.485,8.264 c -0.307,-1.457 0.489,-2.81 0.287,-4.021 z"
   id="path4423"
   inkscape:connector-curvature="0"
   style="fill:#009036" />
			<path
   d="M 13.914,5.663 C 14.909,5.97 20.448,7.83 20.448,7.83 L 17.354,6.251 C 16.103,5.828 13.912,6.022 12.859,5.698 Z"
   id="path4425"
   inkscape:connector-curvature="0"
   style="fill:#009036" />
			<path
   d="m 13.549,4.267 c 1.108,0.376 6.245,2.077 6.245,2.077 L 16.5,4.954 C 15.106,4.424 13.54,4.808 12.366,4.409 Z"
   id="path4427"
   inkscape:connector-curvature="0"
   style="fill:#009036" />
		</g>
		<g
   id="g4459">
			<path
   d="m 22.362,7.215 c 9.256,2.037 17.473,6.526 17.473,6.526 C 34.255,9.674 29.5,8.267 21.691,6.004 Z"
   id="path4431"
   inkscape:connector-curvature="0"
   style="fill:#009036" />
			<path
   d="m 27.781,9.267 c 0.817,0.997 4.87,4.805 4.87,4.805 L 29.429,11.985 C 28.304,10.743 28.689,9.147 27.824,8.092 Z"
   id="path4433"
   inkscape:connector-curvature="0"
   style="fill:#009036" />
			<path
   d="m 31.521,11.089 c 0.817,0.997 3.916,4.211 3.916,4.211 L 34.042,13.64 C 33.433,12.482 32.429,10.97 31.564,9.914 Z"
   id="path4435"
   inkscape:connector-curvature="0"
   style="fill:#009036" />
			<path
   d="m 35.671,12.457 c 0.528,0.599 4.237,2.336 4.237,2.336 L 37.327,13.976 C 36.955,13.269 36.323,12.354 35.764,11.72 Z"
   id="path4437"
   inkscape:connector-curvature="0"
   style="fill:#009036" />
			<path
   d="m 39.405,13.892 c 0.804,0.4 3.896,2.231 3.896,2.231 l -1.962,-1.328 c -0.587,-0.53 -1.566,-1.181 -2.417,-1.604 z"
   id="path4439"
   inkscape:connector-curvature="0"
   style="fill:#009036" />
			<path
   d="m 33.338,11.5 c 0.817,0.997 3.916,4.211 3.916,4.211 l -2.191,-1.99 c -0.609,-1.159 -0.816,-2.34 -1.681,-3.396 z"
   id="path4441"
   inkscape:connector-curvature="0"
   style="fill:#009036" />
			<path
   d="m 32.921,7.851 c 1.421,0.037 6.354,-0.098 6.354,-0.098 L 35.887,7.593 C 34.092,7.507 31.218,8.697 29.713,8.657 Z"
   id="path4443"
   inkscape:connector-curvature="0"
   style="fill:#009036" />
			<path
   d="m 36.029,8.761 c 1.925,0.099 6.463,0.797 6.463,0.797 L 39.277,9.375 C 37.156,9.442 34.318,9.419 32.28,9.314 Z"
   id="path4445"
   inkscape:connector-curvature="0"
   style="fill:#009036" />
			<path
   d="m 37.593,11.701 c 1.112,0.17 4.817,1.91 4.817,1.91 l -1.928,-1.297 c -1.256,-0.057 -2.918,-0.218 -4.095,-0.398 z"
   id="path4447"
   inkscape:connector-curvature="0"
   style="fill:#009036" />
			<path
   d="m 35.475,10.362 c 1.589,0.064 6.515,1.207 6.515,1.207 l -3.199,-1.146 c -1.753,0.071 -3.232,0.362 -4.914,0.295 z"
   id="path4449"
   inkscape:connector-curvature="0"
   style="fill:#009036" />
			<path
   d="m 24.982,8.593 c 0.817,0.997 4.534,5.624 4.534,5.624 L 26.631,11.31 C 25.506,10.069 25.89,8.473 25.026,7.418 Z"
   id="path4451"
   inkscape:connector-curvature="0"
   style="fill:#009036" />
			<path
   d="m 22.879,8.346 c 0.817,0.997 4.534,5.624 4.534,5.624 L 24.528,11.064 C 23.403,9.822 23.787,8.226 22.923,7.171 Z"
   id="path4453"
   inkscape:connector-curvature="0"
   style="fill:#009036" />
			<path
   d="m 27.773,7.216 c 1.465,-0.12 9.7,-0.646 9.7,-0.646 L 32.607,6.358 c -1.861,0.115 -4.66,1.196 -6.21,1.324 z"
   id="path4455"
   inkscape:connector-curvature="0"
   style="fill:#009036" />
			<path
   d="M 26.603,6.055 C 28.252,5.953 35.875,5.444 35.875,5.444 L 30.84,5.49 c -2.103,0.074 -3.983,1.076 -5.729,1.185 z"
   id="path4457"
   inkscape:connector-curvature="0"
   style="fill:#009036" />
		</g>
	</g>
</symbol>
<g
   id="Capa_1"
   clip-path="url(#clipPath4637)"
   transform="translate(51.673532,-48.878328)">
</g>
<g
   id="Fondo"
   clip-path="url(#clipPath4633)"
   transform="translate(51.673532,-48.878328)">
</g>
<g
   id="Guías"
   clip-path="url(#clipPath4629)"
   transform="translate(51.673532,-48.878328)">
</g>
<g
   id="Primer_plano"
   clip-path="url(#clipPath4625)"
   transform="translate(51.673532,-48.878328)">
</g>
<g
   id="Foreground"
   clip-path="url(#clipPath4621)"
   transform="scale(0.81996274,0.94128028)"
   style="image-rendering:auto">
	<circle
   cx="123.785"
   cy="87.375"
   r="65.702003"
   id="circle4468"
   style="clip-rule:evenodd;fill:#002369;fill-rule:evenodd" />
	<g
   id="g4592">
		<path
   d="m 217.902,26.416 h 11.922 c 5.035,0 6.919,1.754 6.919,5.1 0,2.924 -1.462,4.84 -4.256,5.587 h -0.032 v 0.065 c 2.144,0.455 3.508,2.501 3.508,4.645 0,5.588 -4.483,7.797 -9.551,7.797 h -13.319 z m 3.314,17.672 h 4.581 c 1.267,0 3.021,-0.455 3.021,-2.339 0,-1.722 -1.267,-1.981 -2.761,-1.981 h -3.931 z m 1.786,-8.641 h 4.028 c 1.137,0 2.566,-0.422 2.566,-1.852 0,-1.397 -0.942,-1.657 -2.209,-1.657 h -3.671 z"
   id="path4470"
   inkscape:connector-curvature="0"
   style="fill:#002369" />
		<path
   d="m 239.441,37.851 c 1.007,-4.483 4.483,-5.523 8.609,-5.523 3.054,0 8.187,0.39 8.187,4.483 0,2.631 -2.047,10.201 -2.047,11.305 0.13,1.299 0,0.714 0.26,1.494 h -6.302 c -0.163,-0.52 -0.26,-1.072 -0.228,-1.625 h -0.065 c -1.137,1.365 -3.313,2.047 -5.198,2.047 -2.891,0 -5.458,-1.267 -5.458,-4.483 0,-4.451 3.313,-5.653 8.154,-6.01 1.819,-0.13 4.71,0.13 4.71,-1.949 0,-1.169 -1.04,-1.461 -2.014,-1.461 -1.299,0 -2.209,0.455 -2.566,1.722 z m 6.238,8.381 c 2.177,0 3.054,-1.592 3.444,-4.093 -1.04,0.52 -2.242,0.649 -3.411,0.747 -1.072,0.098 -2.079,0.65 -2.079,1.884 -0.001,1.17 1.006,1.462 2.046,1.462 z"
   id="path4472"
   inkscape:connector-curvature="0"
   style="fill:#002369" />
		<path
   d="m 260.948,32.75 h 6.237 l -0.552,2.631 h 0.065 c 1.137,-1.787 3.249,-3.054 4.906,-3.054 1.072,0 1.689,0.065 2.274,0.26 l -1.202,5.685 c -0.78,-0.292 -1.657,-0.422 -2.469,-0.422 -2.729,0 -4.093,1.169 -4.84,4.71 l -1.462,7.049 h -6.433 z"
   id="path4474"
   inkscape:connector-curvature="0"
   style="fill:#002369" />
		<path
   d="m 284.857,39.15 c 0.033,-0.812 -0.097,-1.332 -0.455,-1.657 -0.325,-0.357 -0.877,-0.487 -1.625,-0.487 -2.793,0 -3.541,3.671 -3.541,5.263 0,1.592 0.357,3.086 2.209,3.086 1.754,0 2.469,-1.527 2.826,-2.469 h 6.172 c -1.104,4.808 -4.191,7.147 -9.063,7.147 -7.147,0 -8.577,-4.548 -8.577,-7.699 0,-5.75 3.736,-10.006 10.168,-10.006 4.678,0 8.154,2.112 8.056,6.822 z"
   id="path4476"
   inkscape:connector-curvature="0"
   style="fill:#002369" />
		<path
   d="m 309.417,44.706 c -0.422,1.137 -1.689,5.328 -8.966,5.328 -5.977,0 -8.381,-3.346 -8.381,-7.439 0,-7.731 5.913,-10.266 10.104,-10.266 3.736,0 8.251,2.079 8.251,7.375 0,0.91 -0.032,1.884 -0.325,2.924 h -12.02 c 0,1.787 0.617,3.281 2.631,3.281 1.396,0 2.209,-0.617 2.534,-1.202 h 6.172 z M 304.35,39.28 c 0.033,-0.163 0.065,-0.39 0.065,-0.552 0,-1.267 -0.812,-2.274 -2.437,-2.274 -1.722,0 -2.858,1.04 -3.346,2.826 z"
   id="path4478"
   inkscape:connector-curvature="0"
   style="fill:#002369" />
		<path
   d="m 316.598,26.416 h 6.432 l -4.808,23.195 h -6.432 z"
   id="path4480"
   inkscape:connector-curvature="0"
   style="fill:#002369" />
		<path
   d="m 333.166,32.328 c 4.938,0 8.187,2.274 8.187,7.375 0,4.321 -2.404,10.331 -10.169,10.331 -4.646,0 -8.414,-2.242 -8.414,-7.894 0,-5.393 3.508,-9.812 10.396,-9.812 z m -1.689,13.027 c 2.534,0 3.443,-3.736 3.443,-5.198 0,-2.014 -0.52,-3.151 -2.241,-3.151 -2.566,0 -3.477,3.866 -3.477,5.62 0,1.365 0.455,2.729 2.275,2.729 z"
   id="path4482"
   inkscape:connector-curvature="0"
   style="fill:#002369" />
		<path
   d="m 345.836,32.75 h 6.205 l -0.487,2.144 h 0.064 c 1.234,-1.527 3.184,-2.566 5.23,-2.566 2.956,0 5.49,1.235 5.49,4.548 0,0.747 -0.195,1.981 -0.455,3.216 l -2.047,9.519 h -6.432 l 1.656,-7.731 c 0.195,-0.975 0.521,-2.112 0.521,-2.794 0,-1.072 -0.78,-1.625 -1.819,-1.625 -2.047,0 -2.729,1.462 -3.119,3.216 l -1.884,8.934 h -6.433 z"
   id="path4484"
   inkscape:connector-curvature="0"
   style="fill:#002369" />
		<path
   d="m 365.815,37.851 c 1.007,-4.483 4.483,-5.523 8.609,-5.523 3.053,0 8.186,0.39 8.186,4.483 0,2.631 -2.046,10.201 -2.046,11.305 0.13,1.299 0,0.714 0.26,1.494 h -6.303 c -0.162,-0.52 -0.26,-1.072 -0.228,-1.625 h -0.064 c -1.137,1.365 -3.313,2.047 -5.198,2.047 -2.891,0 -5.457,-1.267 -5.457,-4.483 0,-4.451 3.313,-5.653 8.153,-6.01 1.819,-0.13 4.711,0.13 4.711,-1.949 0,-1.169 -1.039,-1.461 -2.014,-1.461 -1.3,0 -2.21,0.455 -2.566,1.722 z m 6.238,8.381 c 2.177,0 3.054,-1.592 3.443,-4.093 -1.039,0.52 -2.241,0.649 -3.411,0.747 -1.071,0.098 -2.079,0.65 -2.079,1.884 0,1.17 1.008,1.462 2.047,1.462 z"
   id="path4486"
   inkscape:connector-curvature="0"
   style="fill:#002369" />
		<path
   d="m 228.135,70.698 c 0.033,-0.942 -0.292,-1.527 -0.812,-1.917 -0.52,-0.39 -1.267,-0.52 -2.079,-0.52 -1.202,0 -2.761,0.357 -2.761,1.884 0,1.754 3.476,1.852 5.75,2.664 4.028,1.429 5.393,3.638 5.393,6.4 0,5.587 -5.425,8.219 -10.46,8.219 -5.328,0 -10.136,-2.437 -9.843,-8.349 h 6.919 c 0,1.267 0.292,2.046 0.877,2.631 0.617,0.52 1.462,0.584 2.631,0.584 1.397,0 3.119,-0.715 3.119,-2.242 0,-1.689 -2.371,-1.917 -5.587,-2.988 -2.826,-0.942 -5.555,-2.437 -5.555,-6.302 0,-5.23 5.068,-7.634 9.746,-7.634 4.938,0 9.388,1.852 9.258,7.569 h -6.596 z"
   id="path4488"
   inkscape:connector-curvature="0"
   style="fill:#002369" />
		<path
   d="m 251.981,86.876 h -6.237 l 0.52,-2.144 h -0.065 c -1.397,1.657 -3.249,2.566 -5.425,2.566 -2.923,0 -5.36,-1.267 -5.36,-4.483 0,-1.462 0.552,-3.509 2.501,-12.8 h 6.432 l -1.884,8.804 c -0.26,0.877 -0.26,1.754 -0.26,1.754 0,1.04 0.91,1.592 1.852,1.592 2.891,0 3.021,-3.151 3.541,-5.295 l 1.462,-6.854 h 6.432 z"
   id="path4490"
   inkscape:connector-curvature="0"
   style="fill:#002369" />
		<path
   d="m 259.193,70.016 h 6.237 l -0.39,1.917 h 0.065 c 1.104,-1.56 2.534,-2.339 4.516,-2.339 4.743,0 6.14,3.931 6.14,6.92 0,5.002 -2.501,10.785 -8.219,10.785 -1.852,0 -3.671,-0.228 -5.068,-2.469 l -1.527,7.504 h -6.432 z m 10.136,7.244 c 0,-1.657 -0.455,-2.989 -2.339,-2.989 -2.859,0 -3.378,4.093 -3.378,5.587 0,0.617 0.227,2.761 2.339,2.761 2.566,0.001 3.378,-3.182 3.378,-5.359 z"
   id="path4492"
   inkscape:connector-curvature="0"
   style="fill:#002369" />
		<path
   d="m 294.961,81.971 c -0.422,1.137 -1.689,5.328 -8.966,5.328 -5.977,0 -8.381,-3.346 -8.381,-7.439 0,-7.731 5.913,-10.266 10.104,-10.266 3.736,0 8.251,2.079 8.251,7.375 0,0.91 -0.032,1.884 -0.325,2.924 h -12.02 c 0,1.787 0.617,3.281 2.631,3.281 1.396,0 2.209,-0.617 2.534,-1.202 h 6.172 z m -5.067,-5.426 c 0.033,-0.163 0.065,-0.39 0.065,-0.552 0,-1.267 -0.812,-2.274 -2.437,-2.274 -1.722,0 -2.858,1.04 -3.346,2.826 z"
   id="path4494"
   inkscape:connector-curvature="0"
   style="fill:#002369" />
		<path
   d="m 300.647,70.016 h 6.237 l -0.552,2.631 h 0.065 c 1.137,-1.787 3.249,-3.054 4.906,-3.054 1.072,0 1.689,0.065 2.274,0.26 l -1.202,5.685 c -0.78,-0.292 -1.657,-0.422 -2.469,-0.422 -2.729,0 -4.093,1.169 -4.84,4.71 l -1.462,7.049 h -6.433 z"
   id="path4496"
   inkscape:connector-curvature="0"
   style="fill:#002369" />
		<path
   d="m 324.557,76.416 c 0.033,-0.812 -0.097,-1.332 -0.455,-1.657 -0.325,-0.357 -0.877,-0.487 -1.625,-0.487 -2.793,0 -3.541,3.671 -3.541,5.263 0,1.592 0.357,3.086 2.209,3.086 1.754,0 2.469,-1.527 2.826,-2.469 h 6.172 c -1.104,4.808 -4.19,7.147 -9.063,7.147 -7.147,0 -8.577,-4.548 -8.577,-7.699 0,-5.75 3.736,-10.006 10.168,-10.006 4.678,0 8.153,2.112 8.057,6.822 z"
   id="path4498"
   inkscape:connector-curvature="0"
   style="fill:#002369" />
		<path
   d="m 342.165,69.593 c 4.938,0 8.187,2.274 8.187,7.375 0,4.321 -2.404,10.331 -10.169,10.331 -4.646,0 -8.413,-2.242 -8.413,-7.894 0,-5.393 3.507,-9.812 10.395,-9.812 z m -1.689,13.027 c 2.534,0 3.443,-3.736 3.443,-5.198 0,-2.014 -0.52,-3.151 -2.241,-3.151 -2.566,0 -3.477,3.866 -3.477,5.62 0,1.365 0.455,2.729 2.275,2.729 z"
   id="path4500"
   inkscape:connector-curvature="0"
   style="fill:#002369" />
		<path
   d="m 354.835,70.016 h 6.237 l -0.455,2.209 h 0.065 c 1.299,-1.592 3.15,-2.631 5.295,-2.631 2.209,0 4.126,0.715 4.548,2.794 1.397,-1.754 3.281,-2.794 5.522,-2.794 3.281,0 5.393,1.527 5.393,5.003 0,0.78 -0.26,1.917 -0.39,2.664 l -2.046,9.616 h -6.433 l 1.722,-8.057 c 0.065,-0.325 0.39,-1.981 0.39,-2.469 0,-1.072 -0.617,-1.625 -1.656,-1.625 -1.268,0 -2.177,0.715 -2.437,1.949 l -2.209,10.201 h -6.433 l 1.949,-9.031 c 0.098,-0.422 0.26,-1.104 0.26,-1.559 0,-1.072 -0.585,-1.56 -1.624,-1.56 -1.592,0 -2.404,1.04 -2.696,2.501 l -2.079,9.648 h -6.433 z"
   id="path4502"
   inkscape:connector-curvature="0"
   style="fill:#002369" />
		<path
   d="m 386.152,70.016 h 6.237 L 392,71.933 h 0.065 c 1.104,-1.56 2.533,-2.339 4.515,-2.339 4.743,0 6.141,3.931 6.141,6.92 0,5.002 -2.502,10.785 -8.22,10.785 -1.852,0 -3.671,-0.228 -5.067,-2.469 l -1.526,7.504 h -6.433 z m 10.136,7.244 c 0,-1.657 -0.455,-2.989 -2.339,-2.989 -2.858,0 -3.379,4.093 -3.379,5.587 0,0.617 0.228,2.761 2.339,2.761 2.567,0.001 3.379,-3.182 3.379,-5.359 z"
   id="path4504"
   inkscape:connector-curvature="0"
   style="fill:#002369" />
		<path
   d="m 421.043,86.876 h -6.237 l 0.521,-2.144 h -0.065 c -1.396,1.657 -3.249,2.566 -5.425,2.566 -2.924,0 -5.36,-1.267 -5.36,-4.483 0,-1.462 0.552,-3.509 2.501,-12.8 h 6.433 l -1.885,8.804 c -0.26,0.877 -0.26,1.754 -0.26,1.754 0,1.04 0.91,1.592 1.853,1.592 2.891,0 3.021,-3.151 3.54,-5.295 l 1.462,-6.854 h 6.433 z"
   id="path4506"
   inkscape:connector-curvature="0"
   style="fill:#002369" />
		<path
   d="m 435.63,70.016 h 3.477 l -0.91,3.963 h -3.41 l -1.138,5.425 c -0.13,0.552 -0.292,1.137 -0.292,1.689 0,0.552 0.292,1.007 1.299,1.007 1.04,0 1.593,-0.065 2.112,-0.098 l -0.975,4.646 c -1.138,0.195 -2.307,0.357 -3.477,0.422 -1.364,0 -2.826,0 -4.061,-0.682 -1.104,-0.617 -1.754,-1.949 -1.754,-3.184 0,-0.91 0.194,-1.527 0.357,-2.307 l 1.494,-6.919 h -2.858 l 0.909,-3.963 h 2.794 l 1.137,-5.1 h 6.433 z"
   id="path4508"
   inkscape:connector-curvature="0"
   style="fill:#002369" />
		<path
   d="m 441.608,70.016 h 6.433 l -3.509,16.86 H 438.1 Z m 6.79,-1.819 h -6.433 l 0.942,-4.516 h 6.432 z"
   id="path4510"
   inkscape:connector-curvature="0"
   style="fill:#002369" />
		<path
   d="m 451.68,70.016 h 6.205 l -0.487,2.144 h 0.064 c 1.234,-1.527 3.184,-2.566 5.23,-2.566 2.956,0 5.49,1.235 5.49,4.548 0,0.747 -0.195,1.981 -0.455,3.216 l -2.047,9.519 h -6.432 l 1.656,-7.731 c 0.195,-0.975 0.521,-2.112 0.521,-2.794 0,-1.072 -0.78,-1.625 -1.819,-1.625 -2.047,0 -2.729,1.462 -3.119,3.216 l -1.884,8.934 h -6.433 z"
   id="path4512"
   inkscape:connector-curvature="0"
   style="fill:#002369" />
		<path
   d="m 486.798,83.952 c -0.975,4.743 -1.852,8.804 -10.006,8.804 -1.981,0 -8.023,-0.228 -7.797,-5.62 h 6.367 c 0,0.65 0.163,1.104 0.521,1.462 0.324,0.26 0.845,0.357 1.494,0.357 1.949,0 2.437,-1.494 2.761,-2.989 l 0.391,-1.787 h -0.065 c -0.975,1.104 -2.469,1.689 -4.028,1.689 -4.028,0 -6.595,-2.566 -6.595,-6.562 0,-4.808 2.859,-9.713 8.122,-9.713 2.079,0 3.995,0.617 5.003,2.599 h 0.064 l 0.423,-2.177 h 6.204 z m -10.526,-4.905 c 0,1.494 0.747,2.696 2.209,2.696 3.054,0 3.573,-3.704 3.573,-4.84 0,-1.04 -0.098,-2.631 -2.404,-2.631 -2.533,-0.001 -3.378,2.793 -3.378,4.775 z"
   id="path4514"
   inkscape:connector-curvature="0"
   style="fill:#002369" />
		<path
   d="m 236.517,115.337 c -0.422,2.371 -2.242,9.355 -11.89,9.355 -6.725,0 -9.973,-4.354 -9.973,-10.559 0,-7.504 4.678,-13.741 12.572,-13.741 5.166,0 9.778,2.241 9.908,9.194 h -6.757 c 0.065,-2.178 -0.975,-3.412 -3.184,-3.412 -3.963,0 -5.393,4.549 -5.393,7.83 0,1.916 0.455,4.904 3.736,4.904 2.241,0 3.508,-1.526 3.963,-3.572 h 7.018 z"
   id="path4516"
   inkscape:connector-curvature="0"
   style="fill:#002369" />
		<path
   d="m 255.847,119.236 c -0.422,1.137 -1.689,5.327 -8.966,5.327 -5.977,0 -8.381,-3.347 -8.381,-7.439 0,-7.731 5.913,-10.266 10.104,-10.266 3.736,0 8.251,2.079 8.251,7.374 0,0.91 -0.032,1.885 -0.325,2.924 h -12.02 c 0,1.787 0.617,3.281 2.631,3.281 1.396,0 2.209,-0.617 2.534,-1.201 z m -5.068,-5.426 c 0.033,-0.162 0.065,-0.39 0.065,-0.553 0,-1.267 -0.812,-2.273 -2.437,-2.273 -1.722,0 -2.858,1.039 -3.346,2.826 z"
   id="path4518"
   inkscape:connector-curvature="0"
   style="fill:#002369" />
		<path
   d="m 261.565,107.281 h 6.205 l -0.487,2.144 h 0.065 c 1.235,-1.526 3.184,-2.566 5.23,-2.566 2.956,0 5.49,1.235 5.49,4.548 0,0.748 -0.195,1.982 -0.455,3.217 l -2.046,9.518 h -6.432 l 1.657,-7.73 c 0.195,-0.975 0.52,-2.112 0.52,-2.795 0,-1.072 -0.78,-1.624 -1.819,-1.624 -2.046,0 -2.729,1.462 -3.119,3.216 l -1.884,8.934 h -6.433 z"
   id="path4520"
   inkscape:connector-curvature="0"
   style="fill:#002369" />
		<path
   d="m 290.023,107.281 h 3.476 l -0.91,3.963 h -3.411 l -1.137,5.426 c -0.13,0.552 -0.292,1.137 -0.292,1.688 0,0.551 0.292,1.007 1.299,1.007 1.04,0 1.592,-0.064 2.112,-0.098 l -0.975,4.646 c -1.137,0.194 -2.307,0.357 -3.476,0.422 -1.365,0 -2.826,0 -4.061,-0.682 -1.104,-0.617 -1.754,-1.949 -1.754,-3.184 0,-0.91 0.195,-1.527 0.357,-2.307 l 1.495,-6.92 h -2.859 l 0.91,-3.963 h 2.794 l 1.137,-5.101 h 6.433 z"
   id="path4522"
   inkscape:connector-curvature="0"
   style="fill:#002369" />
		<path
   d="m 310.587,119.236 c -0.422,1.137 -1.689,5.327 -8.966,5.327 -5.977,0 -8.381,-3.347 -8.381,-7.439 0,-7.731 5.913,-10.266 10.104,-10.266 3.736,0 8.251,2.079 8.251,7.374 0,0.91 -0.032,1.885 -0.325,2.924 h -12.02 c 0,1.787 0.617,3.281 2.631,3.281 1.396,0 2.209,-0.617 2.534,-1.201 z m -5.067,-5.426 c 0.033,-0.162 0.065,-0.39 0.065,-0.553 0,-1.267 -0.812,-2.273 -2.437,-2.273 -1.722,0 -2.858,1.039 -3.346,2.826 z"
   id="path4524"
   inkscape:connector-curvature="0"
   style="fill:#002369" />
		<path
   d="m 316.273,107.281 h 6.237 l -0.552,2.631 h 0.065 c 1.137,-1.787 3.249,-3.054 4.906,-3.054 1.072,0 1.689,0.065 2.273,0.261 l -1.201,5.685 c -0.78,-0.292 -1.657,-0.423 -2.469,-0.423 -2.729,0 -4.093,1.17 -4.84,4.711 l -1.462,7.049 h -6.433 z"
   id="path4526"
   inkscape:connector-curvature="0"
   style="fill:#002369" />
		<path
   d="m 231.171,148.71 c -0.963,4.279 -3.745,6.9 -8.453,6.9 -5.216,0 -8.185,-3.103 -8.185,-8.372 0,-6.179 3.958,-11.636 10.485,-11.636 4.119,0 7.275,2.193 7.275,6.607 h -2.541 c 0,-2.996 -1.953,-4.468 -4.734,-4.468 -5.323,0 -7.944,4.896 -7.944,9.496 0,3.691 1.819,6.232 5.644,6.232 3.129,0 5.082,-1.792 5.911,-4.761 h 2.542 z"
   id="path4528"
   inkscape:connector-curvature="0"
   style="fill:#002369" />
		<path
   d="m 235.455,148.923 c -0.054,0.402 -0.081,0.803 -0.081,1.204 0,2.14 1.739,3.344 3.584,3.344 1.979,0 3.344,-0.937 3.985,-2.648 h 2.274 c -0.722,3.05 -3.237,4.654 -6.259,4.654 -4.574,0 -5.858,-3.156 -5.858,-5.563 0,-5.297 3.317,-8.907 7.115,-8.907 4.065,0 5.858,2.22 5.858,6.126 0,0.722 -0.134,1.417 -0.214,1.791 h -10.404 z m 8.345,-2.006 c 0.161,-1.953 -0.722,-3.905 -3.236,-3.905 -2.675,0 -4.12,1.766 -4.788,3.905 z"
   id="path4530"
   inkscape:connector-curvature="0"
   style="fill:#002369" />
		<path
   d="m 249.981,141.328 h 2.193 l -0.428,2.086 h 0.053 c 1.15,-1.551 3.023,-2.407 4.922,-2.407 2.595,0 3.852,1.124 3.852,3.558 0,0.588 -0.161,1.631 -0.401,2.701 l -1.685,7.891 h -2.274 l 1.766,-8.078 c 0.107,-0.508 0.321,-1.658 0.321,-2.139 0,-1.312 -1.07,-1.927 -2.407,-1.927 -1.257,0 -2.568,0.696 -3.424,1.604 -0.803,0.696 -1.23,1.793 -1.525,2.89 l -1.604,7.649 h -2.274 z"
   id="path4532"
   inkscape:connector-curvature="0"
   style="fill:#002369" />
		<path
   d="m 267.987,141.328 h 2.755 l -0.428,2.006 h -2.755 l -1.712,8.131 c -0.027,0.322 -0.08,0.589 -0.08,0.91 0,0.723 0.668,0.936 1.364,0.936 0.455,0 0.882,-0.106 1.311,-0.24 l -0.401,2.086 c -0.535,0.107 -1.07,0.161 -1.605,0.161 -1.685,0 -3.103,-0.481 -3.103,-2.247 0,-0.401 0.053,-0.723 0.134,-1.15 l 1.819,-8.586 h -2.327 l 0.428,-2.006 h 2.327 l 0.856,-4.093 h 2.274 z"
   id="path4534"
   inkscape:connector-curvature="0"
   style="fill:#002369" />
		<path
   d="m 273.257,141.328 h 2.14 l -0.669,2.969 h 0.054 c 1.07,-1.899 2.702,-3.29 5.029,-3.29 0.268,0 0.535,-0.054 0.802,0 l -0.535,2.435 c -0.214,-0.027 -0.455,-0.027 -0.669,-0.027 -0.562,0 -0.829,0 -1.364,0.134 -1.257,0.321 -2.22,1.15 -2.942,2.247 -0.615,0.883 -0.936,2.193 -1.15,3.236 l -1.311,6.125 h -2.274 z"
   id="path4536"
   inkscape:connector-curvature="0"
   style="fill:#002369" />
		<path
   d="m 287.597,141.006 c 3.691,0 5.751,2.032 5.751,5.724 0,4.521 -2.809,8.747 -7.65,8.747 -3.638,0 -5.832,-2.435 -5.832,-5.777 0,-4.521 2.889,-8.694 7.731,-8.694 z m -1.659,12.465 c 3.316,0 5.136,-3.825 5.136,-6.554 0,-2.166 -1.15,-3.905 -3.638,-3.905 -3.477,0 -5.296,3.798 -5.296,6.661 0,2.274 1.311,3.798 3.798,3.798 z"
   id="path4538"
   inkscape:connector-curvature="0"
   style="fill:#002369" />
		<path
   d="m 306.433,136.058 h 2.729 l 6.821,15.809 h 0.054 l 3.183,-15.809 h 2.461 l -4.039,19.098 h -2.729 l -6.768,-15.701 h -0.053 l -3.237,15.701 h -2.461 z"
   id="path4540"
   inkscape:connector-curvature="0"
   style="fill:#002369" />
		<path
   d="m 322.94,145.5 c 0.455,-3.076 3.05,-4.493 5.992,-4.493 2.675,0 5.056,0.722 5.056,3.53 0,0.776 -0.268,1.766 -0.429,2.515 l -0.883,3.771 c -0.106,0.562 -0.374,1.338 -0.374,1.979 0,0.643 0.294,0.855 0.669,0.855 0.214,0 0.508,-0.106 0.722,-0.187 l -0.348,1.685 c -0.348,0.188 -0.989,0.321 -1.391,0.321 -1.258,0 -1.926,-0.749 -1.792,-1.952 l -0.054,-0.054 c -0.963,1.284 -2.301,2.006 -4.627,2.006 -2.301,0 -4.227,-1.069 -4.227,-3.905 0,-4.012 3.932,-4.279 6.982,-4.547 2.407,-0.215 3.477,-0.348 3.477,-2.193 0,-1.498 -1.578,-1.819 -2.781,-1.819 -1.739,0 -3.451,0.696 -3.718,2.487 h -2.274 z m 3.077,7.971 c 1.766,0 3.076,-0.589 3.879,-1.819 0.749,-1.043 0.883,-2.273 1.203,-3.557 h -0.053 c -0.99,0.588 -2.782,0.722 -4.44,0.936 -1.632,0.24 -3.076,0.749 -3.076,2.515 -10e-4,1.284 1.203,1.925 2.487,1.925 z"
   id="path4542"
   inkscape:connector-curvature="0"
   style="fill:#002369" />
		<path
   d="m 346.536,145.714 c 0,-1.686 -1.15,-2.702 -2.916,-2.702 -3.504,0 -5.377,3.478 -5.377,6.5 0,2.14 0.883,3.959 3.424,3.959 1.953,0 3.397,-1.15 4.039,-2.835 h 2.274 c -0.803,3.076 -3.13,4.841 -6.313,4.841 -3.771,0 -5.697,-2.247 -5.697,-5.965 0,-4.387 2.702,-8.506 7.65,-8.506 3.13,0 5.082,1.497 5.189,4.708 z"
   id="path4544"
   inkscape:connector-curvature="0"
   style="fill:#002369" />
		<path
   d="m 352.53,141.328 h 2.273 l -2.889,13.828 h -2.273 z m 2.809,-2.489 h -2.3 l 0.588,-2.781 h 2.301 z"
   id="path4546"
   inkscape:connector-curvature="0"
   style="fill:#002369" />
		<path
   d="m 363.9,141.006 c 3.69,0 5.751,2.032 5.751,5.724 0,4.521 -2.809,8.747 -7.65,8.747 -3.638,0 -5.831,-2.435 -5.831,-5.777 0,-4.521 2.889,-8.694 7.73,-8.694 z m -1.659,12.465 c 3.317,0 5.136,-3.825 5.136,-6.554 0,-2.166 -1.149,-3.905 -3.638,-3.905 -3.478,0 -5.296,3.798 -5.296,6.661 0,2.274 1.311,3.798 3.798,3.798 z"
   id="path4548"
   inkscape:connector-curvature="0"
   style="fill:#002369" />
		<path
   d="m 373.854,141.328 h 2.193 l -0.429,2.086 h 0.054 c 1.15,-1.551 3.022,-2.407 4.922,-2.407 2.595,0 3.852,1.124 3.852,3.558 0,0.588 -0.16,1.631 -0.401,2.701 l -1.685,7.891 h -2.273 l 1.765,-8.078 c 0.107,-0.508 0.321,-1.658 0.321,-2.139 0,-1.312 -1.07,-1.927 -2.407,-1.927 -1.257,0 -2.568,0.696 -3.424,1.604 -0.803,0.696 -1.23,1.793 -1.524,2.89 l -1.605,7.649 h -2.273 z"
   id="path4550"
   inkscape:connector-curvature="0"
   style="fill:#002369" />
		<path
   d="m 387.365,145.5 c 0.454,-3.076 3.049,-4.493 5.991,-4.493 2.675,0 5.056,0.722 5.056,3.53 0,0.776 -0.268,1.766 -0.428,2.515 l -0.883,3.771 c -0.107,0.562 -0.375,1.338 -0.375,1.979 0,0.643 0.295,0.855 0.669,0.855 0.214,0 0.509,-0.106 0.723,-0.187 l -0.348,1.685 c -0.348,0.188 -0.99,0.321 -1.392,0.321 -1.257,0 -1.926,-0.749 -1.792,-1.952 l -0.054,-0.054 c -0.963,1.284 -2.3,2.006 -4.627,2.006 -2.301,0 -4.227,-1.069 -4.227,-3.905 0,-4.012 3.933,-4.279 6.981,-4.547 2.407,-0.215 3.478,-0.348 3.478,-2.193 0,-1.498 -1.578,-1.819 -2.782,-1.819 -1.738,0 -3.45,0.696 -3.718,2.487 h -2.272 z m 3.076,7.971 c 1.765,0 3.076,-0.589 3.878,-1.819 0.749,-1.043 0.883,-2.273 1.204,-3.557 h -0.054 c -0.989,0.588 -2.782,0.722 -4.44,0.936 -1.632,0.24 -3.076,0.749 -3.076,2.515 0,1.284 1.204,1.925 2.488,1.925 z"
   id="path4552"
   inkscape:connector-curvature="0"
   style="fill:#002369" />
		<path
   d="m 403.712,136.058 h 2.273 l -4.013,19.098 h -2.273 z"
   id="path4554"
   inkscape:connector-curvature="0"
   style="fill:#002369" />
		<path
   d="m 425.381,155.156 h -2.141 l 0.482,-1.979 h -0.054 c -1.364,1.792 -2.729,2.3 -4.574,2.3 -3.531,0 -5.43,-2.3 -5.43,-5.671 0,-4.199 2.835,-8.8 7.677,-8.8 1.685,0 3.771,0.589 4.307,2.435 h 0.053 l 1.472,-7.383 h 2.247 z m -5.885,-1.685 c 3.45,0 5.403,-3.985 5.403,-6.874 0,-2.061 -1.23,-3.585 -3.478,-3.585 -3.611,0 -5.483,3.745 -5.483,6.794 0,2.247 1.07,3.665 3.558,3.665 z"
   id="path4556"
   inkscape:connector-curvature="0"
   style="fill:#002369" />
		<path
   d="m 431.696,148.923 c -0.053,0.402 -0.08,0.803 -0.08,1.204 0,2.14 1.738,3.344 3.584,3.344 1.979,0 3.344,-0.937 3.986,-2.648 h 2.273 c -0.723,3.05 -3.236,4.654 -6.26,4.654 -4.573,0 -5.857,-3.156 -5.857,-5.563 0,-5.297 3.316,-8.907 7.115,-8.907 4.065,0 5.857,2.22 5.857,6.126 0,0.722 -0.134,1.417 -0.214,1.791 h -10.404 z m 8.346,-2.006 c 0.16,-1.953 -0.722,-3.905 -3.236,-3.905 -2.675,0 -4.119,1.766 -4.788,3.905 z"
   id="path4558"
   inkscape:connector-curvature="0"
   style="fill:#002369" />
		<path
   d="m 464.763,141.702 c 0.08,-3.022 -1.766,-3.959 -4.387,-3.959 -1.873,0 -4.414,0.856 -4.414,3.13 0,1.846 1.364,2.595 3.104,3.076 l 2.567,0.695 c 2.381,0.643 4.601,1.738 4.601,5.162 0,3.933 -3.985,5.805 -7.436,5.805 -4.602,0 -7.838,-2.033 -7.517,-6.714 h 2.541 c -0.16,3.45 1.979,4.574 5.082,4.574 2.381,0 4.788,-1.097 4.788,-3.665 0,-1.952 -1.524,-2.648 -3.396,-3.156 l -2.595,-0.695 c -2.274,-0.615 -4.28,-2.006 -4.28,-4.814 0,-3.691 3.558,-5.537 6.955,-5.537 3.771,0 7.062,1.846 6.928,6.099 h -2.541 z"
   id="path4560"
   inkscape:connector-curvature="0"
   style="fill:#002369" />
		<path
   d="m 479.211,155.156 h -2.193 l 0.428,-2.086 h -0.054 c -1.15,1.551 -3.022,2.407 -4.922,2.407 -2.595,0 -3.852,-1.123 -3.852,-3.558 0,-0.588 0.16,-1.631 0.401,-2.701 l 1.685,-7.891 h 2.274 l -1.766,8.078 c -0.107,0.508 -0.321,1.658 -0.321,2.14 0,1.311 1.07,1.926 2.407,1.926 2.515,0 4.467,-2.193 4.948,-4.493 l 1.605,-7.65 h 2.273 z"
   id="path4562"
   inkscape:connector-curvature="0"
   style="fill:#002369" />
		<path
   d="m 485.821,141.328 h 2.14 l -0.481,1.979 h 0.054 c 1.364,-1.791 2.729,-2.3 4.574,-2.3 3.53,0 5.43,2.3 5.43,5.671 0,4.199 -2.835,8.8 -7.677,8.8 -1.686,0 -3.771,-0.589 -4.307,-2.435 H 485.5 l -1.471,7.41 h -2.247 z m 5.885,1.684 c -3.451,0 -5.403,3.985 -5.403,6.874 0,2.061 1.23,3.585 3.478,3.585 3.61,0 5.483,-3.745 5.483,-6.794 0,-2.247 -1.071,-3.665 -3.558,-3.665 z"
   id="path4564"
   inkscape:connector-curvature="0"
   style="fill:#002369" />
		<path
   d="m 501.579,148.923 c -0.053,0.402 -0.08,0.803 -0.08,1.204 0,2.14 1.738,3.344 3.584,3.344 1.979,0 3.344,-0.937 3.986,-2.648 h 2.273 c -0.723,3.05 -3.236,4.654 -6.26,4.654 -4.573,0 -5.857,-3.156 -5.857,-5.563 0,-5.297 3.316,-8.907 7.115,-8.907 4.065,0 5.857,2.22 5.857,6.126 0,0.722 -0.134,1.417 -0.214,1.791 h -10.404 z m 8.346,-2.006 c 0.16,-1.953 -0.722,-3.905 -3.236,-3.905 -2.675,0 -4.119,1.766 -4.788,3.905 z"
   id="path4566"
   inkscape:connector-curvature="0"
   style="fill:#002369" />
		<path
   d="m 516.08,141.328 h 2.14 l -0.668,2.969 h 0.053 c 1.07,-1.899 2.702,-3.29 5.029,-3.29 0.268,0 0.535,-0.054 0.803,0 l -0.535,2.435 c -0.214,-0.027 -0.455,-0.027 -0.669,-0.027 -0.562,0 -0.829,0 -1.364,0.134 -1.257,0.321 -2.22,1.15 -2.942,2.247 -0.615,0.883 -0.936,2.193 -1.15,3.236 l -1.311,6.125 h -2.273 z"
   id="path4568"
   inkscape:connector-curvature="0"
   style="fill:#002369" />
		<path
   d="m 533.362,145.714 c 0,-1.686 -1.15,-2.702 -2.916,-2.702 -3.504,0 -5.377,3.478 -5.377,6.5 0,2.14 0.883,3.959 3.424,3.959 1.953,0 3.397,-1.15 4.039,-2.835 h 2.274 c -0.803,3.076 -3.13,4.841 -6.313,4.841 -3.771,0 -5.697,-2.247 -5.697,-5.965 0,-4.387 2.702,-8.506 7.65,-8.506 3.13,0 5.082,1.497 5.189,4.708 z"
   id="path4570"
   inkscape:connector-curvature="0"
   style="fill:#002369" />
		<path
   d="m 544.787,141.006 c 3.69,0 5.751,2.032 5.751,5.724 0,4.521 -2.809,8.747 -7.65,8.747 -3.638,0 -5.831,-2.435 -5.831,-5.777 0,-4.521 2.888,-8.694 7.73,-8.694 z m -1.659,12.465 c 3.317,0 5.136,-3.825 5.136,-6.554 0,-2.166 -1.149,-3.905 -3.638,-3.905 -3.478,0 -5.296,3.798 -5.296,6.661 0,2.274 1.311,3.798 3.798,3.798 z"
   id="path4572"
   inkscape:connector-curvature="0"
   style="fill:#002369" />
		<path
   d="m 554.767,141.328 h 2.113 l -0.509,2.059 0.054,0.055 c 1.177,-1.445 2.916,-2.435 4.815,-2.435 1.738,0 3.075,0.695 3.477,2.487 1.07,-1.471 2.89,-2.487 4.734,-2.487 1.953,0 3.853,0.856 3.853,3.103 0,0.803 -0.214,1.979 -0.401,2.756 l -1.739,8.291 h -2.273 l 1.926,-8.773 c 0.107,-0.428 0.215,-1.096 0.215,-1.498 0,-1.069 -0.91,-1.872 -2.113,-1.872 -1.284,0 -2.702,0.909 -3.478,1.899 -0.749,0.803 -1.043,1.926 -1.284,3.103 l -1.524,7.142 h -2.273 l 1.658,-7.891 c 0.24,-1.07 0.428,-2.113 0.428,-2.434 0,-1.15 -0.695,-1.819 -1.926,-1.819 -1.257,0 -2.595,0.856 -3.397,1.766 -0.963,0.937 -1.177,1.765 -1.471,3.13 l -1.552,7.248 h -2.273 z"
   id="path4574"
   inkscape:connector-curvature="0"
   style="fill:#002369" />
		<path
   d="m 577.481,141.328 h 2.14 l -0.481,1.979 h 0.054 c 1.364,-1.791 2.729,-2.3 4.574,-2.3 3.53,0 5.43,2.3 5.43,5.671 0,4.199 -2.835,8.8 -7.677,8.8 -1.686,0 -3.771,-0.589 -4.307,-2.435 h -0.054 l -1.471,7.41 h -2.247 z m 5.885,1.684 c -3.451,0 -5.403,3.985 -5.403,6.874 0,2.061 1.23,3.585 3.478,3.585 3.61,0 5.483,-3.745 5.483,-6.794 0,-2.247 -1.07,-3.665 -3.558,-3.665 z"
   id="path4576"
   inkscape:connector-curvature="0"
   style="fill:#002369" />
		<path
   d="m 601.612,155.156 h -2.193 l 0.428,-2.086 h -0.054 c -1.15,1.551 -3.022,2.407 -4.922,2.407 -2.595,0 -3.852,-1.123 -3.852,-3.558 0,-0.588 0.16,-1.631 0.401,-2.701 l 1.685,-7.891 h 2.274 l -1.766,8.078 c -0.107,0.508 -0.321,1.658 -0.321,2.14 0,1.311 1.07,1.926 2.407,1.926 2.515,0 4.467,-2.193 4.948,-4.493 l 1.605,-7.65 h 2.273 z"
   id="path4578"
   inkscape:connector-curvature="0"
   style="fill:#002369" />
		<path
   d="m 611.405,141.328 h 2.756 l -0.429,2.006 h -2.755 l -1.712,8.131 c -0.026,0.322 -0.08,0.589 -0.08,0.91 0,0.723 0.669,0.936 1.364,0.936 0.454,0 0.883,-0.106 1.311,-0.24 l -0.401,2.086 c -0.535,0.107 -1.07,0.161 -1.604,0.161 -1.686,0 -3.104,-0.481 -3.104,-2.247 0,-0.401 0.054,-0.723 0.134,-1.15 l 1.819,-8.586 h -2.327 l 0.428,-2.006 h 2.327 l 0.856,-4.093 h 2.273 z"
   id="path4580"
   inkscape:connector-curvature="0"
   style="fill:#002369" />
		<path
   d="m 615.34,145.5 c 0.454,-3.076 3.049,-4.493 5.991,-4.493 2.675,0 5.056,0.722 5.056,3.53 0,0.776 -0.268,1.766 -0.428,2.515 l -0.883,3.771 c -0.107,0.562 -0.375,1.338 -0.375,1.979 0,0.643 0.295,0.855 0.669,0.855 0.214,0 0.509,-0.106 0.723,-0.187 l -0.348,1.685 c -0.348,0.188 -0.99,0.321 -1.392,0.321 -1.257,0 -1.926,-0.749 -1.792,-1.952 l -0.054,-0.054 c -0.963,1.284 -2.3,2.006 -4.627,2.006 -2.301,0 -4.227,-1.069 -4.227,-3.905 0,-4.012 3.933,-4.279 6.981,-4.547 2.407,-0.215 3.478,-0.348 3.478,-2.193 0,-1.498 -1.578,-1.819 -2.782,-1.819 -1.738,0 -3.45,0.696 -3.718,2.487 h -2.272 z m 3.076,7.971 c 1.765,0 3.076,-0.589 3.878,-1.819 0.749,-1.043 0.883,-2.273 1.204,-3.557 h -0.054 c -0.989,0.588 -2.782,0.722 -4.44,0.936 -1.632,0.24 -3.076,0.749 -3.076,2.515 0,1.284 1.204,1.925 2.488,1.925 z"
   id="path4582"
   inkscape:connector-curvature="0"
   style="fill:#002369" />
		<path
   d="m 638.935,145.714 c 0,-1.686 -1.149,-2.702 -2.915,-2.702 -3.504,0 -5.377,3.478 -5.377,6.5 0,2.14 0.883,3.959 3.424,3.959 1.953,0 3.397,-1.15 4.039,-2.835 h 2.274 c -0.803,3.076 -3.13,4.841 -6.313,4.841 -3.771,0 -5.697,-2.247 -5.697,-5.965 0,-4.387 2.702,-8.506 7.65,-8.506 3.13,0 5.082,1.497 5.189,4.708 z"
   id="path4584"
   inkscape:connector-curvature="0"
   style="fill:#002369" />
		<path
   d="m 644.93,141.328 h 2.273 l -2.889,13.828 h -2.273 z m 2.808,-2.489 h -2.3 l 0.588,-2.781 h 2.301 z"
   id="path4586"
   inkscape:connector-curvature="0"
   style="fill:#002369" />
		<path
   d="m 656.3,141.006 c 3.69,0 5.751,2.032 5.751,5.724 0,4.521 -2.81,8.747 -7.65,8.747 -3.638,0 -5.831,-2.435 -5.831,-5.777 -0.001,-4.521 2.888,-8.694 7.73,-8.694 z m -1.659,12.465 c 3.317,0 5.136,-3.825 5.136,-6.554 0,-2.166 -1.149,-3.905 -3.638,-3.905 -3.478,0 -5.296,3.798 -5.296,6.661 0,2.274 1.31,3.798 3.798,3.798 z m 3.665,-17.868 h 3.022 l -3.638,3.825 h -1.873 z"
   id="path4588"
   inkscape:connector-curvature="0"
   style="fill:#002369" />
		<path
   d="m 666.253,141.328 h 2.193 l -0.429,2.086 h 0.054 c 1.15,-1.551 3.022,-2.407 4.922,-2.407 2.595,0 3.852,1.124 3.852,3.558 0,0.588 -0.16,1.631 -0.401,2.701 l -1.685,7.891 h -2.273 l 1.765,-8.078 c 0.107,-0.508 0.321,-1.658 0.321,-2.139 0,-1.312 -1.07,-1.927 -2.407,-1.927 -1.257,0 -2.568,0.696 -3.424,1.604 -0.803,0.696 -1.23,1.793 -1.524,2.89 l -1.605,7.649 h -2.273 z"
   id="path4590"
   inkscape:connector-curvature="0"
   style="fill:#002369" />
	</g>
	<path
   d="m 106.473,11.124 c 6.556,0 20.343,2.988 25.423,4.422 C 79.733,13.01 46.88,48.368 46.88,88.99 c 0,28.901 17.269,60.793 58.796,70.359 C 57.512,160.201 29.4,120.474 29.4,85.811 29.399,41.913 67.042,11.124 106.473,11.124 Z"
   id="path4594"
   inkscape:connector-curvature="0"
   style="clip-rule:evenodd;fill:#002369;fill-rule:evenodd" />
	<path
   d="m 78.663,0 c 8.541,0 19.563,2.793 27.412,5.165 -3.274,-0.409 -8.74,-0.397 -10.727,-0.397 -48.171,0 -77.073,42.31 -77.073,81.441 0,33.669 18.658,69.334 63.563,79.494 C 28.612,167.054 0,120.474 0,82.633 0,38.635 34.962,0 78.663,0 Z"
   id="path4596"
   inkscape:connector-curvature="0"
   style="clip-rule:evenodd;fill:#002369;fill-rule:evenodd" />
	<g
   id="g4604">
		<path
   d="m 85.892,72.566 h 14.168 c 5.984,0 8.223,2.085 8.223,6.061 0,3.475 -1.737,5.752 -5.058,6.64 h -0.039 v 0.077 c 2.548,0.541 4.169,2.973 4.169,5.521 0,6.64 -5.327,9.265 -11.35,9.265 H 80.179 Z m 3.938,21.001 h 5.443 c 1.505,0 3.59,-0.54 3.59,-2.779 0,-2.046 -1.505,-2.355 -3.281,-2.355 h -4.671 z m 2.123,-10.269 h 4.787 c 1.351,0 3.05,-0.502 3.05,-2.201 0,-1.66 -1.12,-1.969 -2.625,-1.969 h -4.362 z"
   id="path4598"
   inkscape:connector-curvature="0"
   style="fill:#ffffff" />
		<path
   d="m 128.589,80.905 c 0.039,-1.12 -0.347,-1.814 -0.965,-2.278 -0.618,-0.464 -1.506,-0.618 -2.471,-0.618 -1.429,0 -3.282,0.425 -3.282,2.239 0,2.084 4.131,2.2 6.833,3.166 4.787,1.699 6.409,4.324 6.409,7.605 0,6.64 -6.447,9.767 -12.431,9.767 -6.332,0 -12.045,-2.896 -11.697,-9.921 h 8.223 c 0,1.505 0.347,2.432 1.042,3.127 0.733,0.618 1.737,0.695 3.127,0.695 1.66,0 3.706,-0.849 3.706,-2.664 0,-2.007 -2.818,-2.278 -6.64,-3.552 -3.359,-1.12 -6.602,-2.896 -6.602,-7.489 0,-6.215 6.022,-9.072 11.582,-9.072 5.868,0 11.157,2.201 11.002,8.995 z"
   id="path4600"
   inkscape:connector-curvature="0"
   style="fill:#ffffff" />
		<path
   d="m 166.229,89.668 c -0.502,2.818 -2.664,11.118 -14.129,11.118 -7.991,0 -11.852,-5.173 -11.852,-12.546 0,-8.918 5.559,-16.33 14.94,-16.33 6.138,0 11.62,2.664 11.774,10.925 h -8.03 c 0.078,-2.586 -1.158,-4.054 -3.783,-4.054 -4.709,0 -6.408,5.405 -6.408,9.304 0,2.277 0.541,5.829 4.439,5.829 2.664,0 4.169,-1.814 4.71,-4.247 h 8.339 z"
   id="path4602"
   inkscape:connector-curvature="0"
   style="fill:#ffffff" />
	</g>
</g>
</svg>